<svg id="Layer_1" data-name="Layer 1" xmlns="http://www.w3.org/2000/svg" viewBox="0 0 509.33 200"><defs><style>.cls-1,.cls-3{fill:#05668d;}.cls-1,.cls-2{stroke:#fff;stroke-linecap:round;stroke-linejoin:round;stroke-width:33.75px;}.cls-2{fill:#ff956b;}.cls-4{fill:#ff926b;}</style></defs><path class="cls-1" d="M48.89,76.25v-9h9.35V50.67H68.61V67.22H85v9H68.72v25.8c0,5.48,3.17,8.22,8.43,8.22a23.62,23.62,0,0,0,8.39-1.78l1.39,9.14c-2.58,1.34-7.14,2.26-11.28,2.26-10.8,0-17.57-6.08-17.57-16.56V76.25Z"/><path class="cls-1" d="M118.64,66.15c15,0,24.82,11.18,24.82,25a25.39,25.39,0,0,1-.43,4.94H103c.48,7.74,7.09,13.81,16,13.81,6.45,0,11.61-2.74,15.48-8.81l7.85,5.69c-4.79,8.6-14.19,13.12-23.33,13.12-15.58,0-27-11.5-27-26.82S103,66.15,118.64,66.15Zm14,22C132,80.87,126,75.77,118.53,75.77c-7.9,0-13.92,5.1-15.26,12.36Z"/><path class="cls-1" d="M175.44,87.81a31.3,31.3,0,0,1,13,2.41V87.43c0-6.45-5.21-11.29-13.22-11.29-6.39,0-11.71,3.66-14.78,7.15l-6.71-6.66a29,29,0,0,1,21.65-10.48c14.51,0,23.7,7.85,23.7,20.37v32.29s-19.56,1.08-26.49,1.08c-11.18,0-19.94-5.65-19.94-15.75C152.65,94.47,161.89,87.81,175.44,87.81Zm-1.29,23.37c8.38,0,14.29-5.75,14.29-12.79a31.29,31.29,0,0,0-12.73-2.47c-6.72,0-12.31,2.26-12.31,7.84C163.4,108.44,168.07,111.18,174.15,111.18Z"/><path class="cls-2" d="M299,86.93c-.22-12.22-7.61-20.78-21.16-20.78-8.87,0-15.32,4.57-18.43,9.62-3.28-6-9.52-9.62-18.38-9.62-9.08,0-26.33,1.07-26.33,1.07v51.59h0c.21,12.23,7.61,20.79,21.16,20.79,8.87,0,15.31-4.57,18.43-9.62,3.28,6,9.51,9.62,18.38,9.62,9.08,0,26.33-1.08,26.33-1.08V86.93Zm-61.47,42.56c-7.57,0-12.14-4.94-12.14-13.48V89.74c0-8.54,6.29-13.49,14-13.49s12.15,5,12.15,13.49v26.91C251.26,124.76,245.08,129.49,237.55,129.49Zm36.81,0c-7.57,0-12.14-4.94-12.14-13.48V89.1c.27-8.12,6.45-12.85,14-12.85s12.15,5,12.15,13.49V116C288.34,124.55,282.05,129.49,274.36,129.49Z"/><path class="cls-1" d="M334.08,108.59a31.36,31.36,0,0,1,13,2.42v-2.8c0-6.44-5.21-11.28-13.22-11.28-6.4,0-11.72,3.65-14.78,7.15l-6.72-6.67A29.06,29.06,0,0,1,334,86.93c14.51,0,23.7,7.85,23.7,20.37v32.3s-19.56,1.07-26.49,1.07c-11.18,0-19.94-5.64-19.94-15.74C311.3,115.25,320.54,108.59,334.08,108.59ZM332.79,132c8.39,0,14.3-5.75,14.3-12.78a31.32,31.32,0,0,0-12.74-2.48c-6.71,0-12.3,2.26-12.3,7.85C322.05,129.22,326.72,132,332.79,132Z"/><path class="cls-1" d="M366.65,97,376,88V71.46h10.37V88h16.39v9H386.48v25.79c0,5.48,3.17,8.22,8.43,8.22a23.87,23.87,0,0,0,8.39-1.77l1.39,9.13c-2.58,1.35-7.14,2.26-11.28,2.26-10.8,0-17.57-6.07-17.57-16.55V97Z"/><path class="cls-1" d="M436.4,86.93c15,0,24.82,11.18,24.82,25a26.12,26.12,0,0,1-.43,4.94h-40c.48,7.74,7.09,13.81,16,13.81,6.45,0,11.61-2.74,15.48-8.81l7.84,5.7c-4.78,8.6-14.18,13.11-23.32,13.11-15.58,0-27-11.5-27-26.81S420.76,86.93,436.4,86.93Zm14,22c-.64-7.25-6.72-12.36-14.13-12.36-7.9,0-13.92,5.11-15.26,12.36Z"/><ellipse class="cls-2" cx="241.79" cy="114.98" rx="6.03" ry="8.45"/><ellipse class="cls-2" cx="278.47" cy="114.98" rx="6.03" ry="8.45"/><path class="cls-2" d="M241.44,147.82c1.49,2.83,4.58,4.64,7.59,5.42s6.67.73,9.31-1.17a1.87,1.87,0,0,0,.66-2.51,1.84,1.84,0,0,0-2.51-.65,8.39,8.39,0,0,1-.81.5s-.43.21-.22.12-.26.1-.31.11a7.26,7.26,0,0,1-.88.25l-.5.1c-.35.06.11,0-.11,0a13.49,13.49,0,0,1-2,0l-.3,0-.29,0a10,10,0,0,1-1.06-.23c-.32-.08-.64-.18-.95-.28l-.42-.16c-.54-.18.28.15-.23-.09a11.53,11.53,0,0,1-1.69-.93c-.15-.09-.29-.19-.43-.29.29.21-.13-.12-.15-.13-.21-.18-.41-.37-.61-.57s-.21-.24-.32-.36c-.34-.36.16.28-.11-.13a7.91,7.91,0,0,1-.48-.79,1.84,1.84,0,0,0-3.17,1.85Z"/><path class="cls-3" d="M48.89,76.51v-9h9.35V50.93H68.61V67.48H85v9H68.72V102.3c0,5.49,3.17,8.23,8.43,8.23a23.62,23.62,0,0,0,8.39-1.78l1.39,9.14c-2.58,1.34-7.14,2.25-11.28,2.25-10.8,0-17.57-6.07-17.57-16.55V76.51Z"/><path class="cls-3" d="M118.64,66.41c15,0,24.82,11.18,24.82,25a25.39,25.39,0,0,1-.43,4.94H103c.48,7.74,7.09,13.81,16,13.81,6.45,0,11.61-2.74,15.48-8.81l7.85,5.69c-4.79,8.6-14.19,13.11-23.33,13.11-15.58,0-27-11.49-27-26.81S103,66.41,118.64,66.41Zm14,22C132,81.13,126,76,118.53,76c-7.9,0-13.92,5.1-15.26,12.36Z"/><path class="cls-3" d="M175.44,88.06a31.26,31.26,0,0,1,13,2.42V87.69c0-6.45-5.21-11.29-13.22-11.29-6.39,0-11.71,3.66-14.78,7.15l-6.71-6.66a29,29,0,0,1,21.65-10.48c14.51,0,23.7,7.84,23.7,20.37v32.29H188.66v-6.66c-3.18,4.83-9.14,7.73-16.07,7.73-11.18,0-19.94-5.64-19.94-15.74C152.65,94.73,161.89,88.06,175.44,88.06Zm-1.29,23.38c8.38,0,14.29-5.75,14.29-12.79a31.29,31.29,0,0,0-12.73-2.47c-6.72,0-12.31,2.26-12.31,7.84C163.4,108.7,168.07,111.44,174.15,111.44Z"/><path class="cls-3" d="M334.08,108.85a31.36,31.36,0,0,1,13,2.42v-2.8c0-6.45-5.21-11.28-13.22-11.28-6.4,0-11.72,3.65-14.78,7.15l-6.72-6.67A29.06,29.06,0,0,1,334,87.19c14.51,0,23.7,7.85,23.7,20.37v32.29H347.3v-6.66c-3.17,4.84-9.13,7.74-16.06,7.74-11.18,0-19.94-5.64-19.94-15.75C311.3,115.51,320.54,108.85,334.08,108.85Zm-1.29,23.37c8.39,0,14.3-5.75,14.3-12.79A31.52,31.52,0,0,0,334.35,117c-6.71,0-12.3,2.26-12.3,7.85C322.05,129.48,326.72,132.22,332.79,132.22Z"/><path class="cls-3" d="M366.65,97.3v-9H376V71.72h10.37V88.27h16.39v9H386.48v25.79c0,5.48,3.17,8.22,8.43,8.22a23.87,23.87,0,0,0,8.39-1.77l1.39,9.13c-2.58,1.35-7.14,2.26-11.28,2.26-10.8,0-17.57-6.07-17.57-16.55V97.3Z"/><path class="cls-3" d="M436.4,87.19c15,0,24.82,11.18,24.82,25a26.12,26.12,0,0,1-.43,4.94h-40c.48,7.74,7.09,13.81,16,13.81,6.45,0,11.61-2.74,15.48-8.81l7.84,5.7c-4.78,8.6-14.18,13.11-23.32,13.11-15.58,0-27-11.5-27-26.81S420.76,87.19,436.4,87.19Zm14,22c-.64-7.25-6.72-12.36-14.13-12.36-7.9,0-13.92,5.11-15.26,12.36Z"/><path class="cls-4" d="M299.37,87.43c-.22-12.33-7.68-21-21.34-21-8.94,0-15.45,4.61-18.59,9.7-3.3-6-9.59-9.7-18.53-9.7-9.16,0-14.09,5-15.77,7.64V67.55H214.36v52h.08c.22,12.33,7.68,21,21.34,21,8.94,0,15.45-4.61,18.59-9.7,3.3,6,9.59,9.7,18.53,9.7,9.16,0,14.09-5,15.77-7.64v6.55h10.78v-52Zm-47.89,31c-.75,7.53-6.77,11.89-14,11.89-7.64,0-12.24-5-12.24-13.6V88.68c.72-7.64,6.75-12,14-12,7.64,0,12.25,5,12.25,13.6Zm37.11-.13c-.72,7.64-6.75,12-14,12-7.64,0-12.25-5-12.25-13.6V88.55c.75-7.53,6.76-11.89,14-11.89,7.64,0,12.24,5,12.24,13.6Z"/><path class="cls-4" d="M241.66,107.19c-3.36,0-6.09,3.81-6.09,8.52s2.73,8.52,6.09,8.52,6.08-3.82,6.08-8.52S245,107.19,241.66,107.19Z"/><path class="cls-4" d="M278.65,107.19c-3.36,0-6.09,3.81-6.09,8.52s2.73,8.52,6.09,8.52,6.08-3.82,6.08-8.52S282,107.19,278.65,107.19Z"/><path class="cls-4" d="M255.6,149.34a5.13,5.13,0,0,1-2.62,1h0a10.86,10.86,0,0,1-2.28,0h0a16.78,16.78,0,0,1-2.57-.72h0a7.41,7.41,0,0,1-1.75-1l-.36-.25a9.82,9.82,0,0,1-.83-.91c-1-1.16-2.31-2.73-4.05-1.83a2.47,2.47,0,0,0-.93,3.39v0a13,13,0,0,0,8.32,5.93,14,14,0,0,0,3.3.4,11.53,11.53,0,0,0,6.3-1.77,2.45,2.45,0,0,0,.79-3.45A2.37,2.37,0,0,0,255.6,149.34Z"/></svg>